<svg xmlns="http://www.w3.org/2000/svg" viewBox="0 0 40 40">
  <defs>
    <linearGradient id="g" x1="0" y1="40" x2="40" y2="0" gradientUnits="userSpaceOnUse">
      <stop offset="0%" stop-color="#1e3a8a"/>
      <stop offset="55%" stop-color="#1d4ed8"/>
      <stop offset="100%" stop-color="#3b82f6"/>
    </linearGradient>
  </defs>
  <!-- Capital D with a notch on the top edge for the database stack -->
  <path d="M5 5H9V8H17V5H23C30.7 5 37 11.7 37 20C37 28.3 30.7 35 23 35H5Z" fill="url(#g)"/>
  <!-- Database stack silhouette -->
  <ellipse cx="13" cy="8" rx="4" ry="1.6" fill="#fff"/>
  <rect x="9" y="8" width="8" height="15" fill="#fff"/>
  <ellipse cx="13" cy="23" rx="4" ry="1.6" fill="#fff"/>
  <!-- Disk separators (brand gradient under, white top halves over) -->
  <ellipse cx="13" cy="13" rx="4" ry="1.6" fill="url(#g)"/>
  <ellipse cx="13" cy="18" rx="4" ry="1.6" fill="url(#g)"/>
  <path d="M9 13A4 1.6 0 0 1 17 13Z" fill="#fff"/>
  <path d="M9 18A4 1.6 0 0 1 17 18Z" fill="#fff"/>
</svg>
